<svg id="Layer_1" data-name="Layer 1" xmlns="http://www.w3.org/2000/svg" xmlns:xlink="http://www.w3.org/1999/xlink" viewBox="0 0 365.34 137.54"><defs><style>.cls-1{fill:#ea2127;}.cls-2{fill:url(#New_Gradient_Swatch_2);}.cls-3{fill:none;stroke:#221f1f;stroke-miterlimit:10;stroke-width:0.25px;}.cls-4{fill:url(#New_Gradient_Swatch_2-2);}.cls-14,.cls-5,.cls-7{fill:#bc202e;}.cls-12,.cls-6{fill:#a31d32;}.cls-6,.cls-7{opacity:0.91;}.cls-8{fill:url(#New_Gradient_Swatch_2-3);}.cls-9{fill:url(#New_Gradient_Swatch_2-4);}.cls-10,.cls-11,.cls-13,.cls-15{fill:#7c1318;}.cls-10{opacity:0.56;}.cls-11{opacity:0.25;}.cls-13{opacity:0.06;}.cls-14{opacity:0.8;}.cls-15{opacity:0.23;}.cls-16{fill:#221f1f;}.cls-17{fill:#801522;opacity:0.6;}.cls-18{fill:#fff;opacity:0.21;}</style><linearGradient id="New_Gradient_Swatch_2" x1="82.62" y1="78.51" x2="82.62" y2="78.51" gradientUnits="userSpaceOnUse"><stop offset="0" stop-color="#bc202e"/><stop offset="0.04" stop-color="#c8202c"/><stop offset="0.12" stop-color="#db2129"/><stop offset="0.2" stop-color="#e62128"/><stop offset="0.28" stop-color="#ea2127"/><stop offset="0.67" stop-color="#f18f40"/><stop offset="0.89" stop-color="#ec683b"/><stop offset="1" stop-color="#e63f39"/></linearGradient><linearGradient id="New_Gradient_Swatch_2-2" x1="-677.43" y1="78.51" x2="-677.43" y2="78.51" gradientTransform="matrix(-1, 0, 0, 1, -594.59, 0)" xlink:href="#New_Gradient_Swatch_2"/><linearGradient id="New_Gradient_Swatch_2-3" x1="-718.32" y1="78.51" x2="-718.32" y2="78.51" gradientTransform="matrix(-1, 0, 0, 1, -635.13, 0)" xlink:href="#New_Gradient_Swatch_2"/><linearGradient id="New_Gradient_Swatch_2-4" x1="123.51" y1="78.51" x2="123.51" y2="78.51" gradientTransform="translate(-40.54)" xlink:href="#New_Gradient_Swatch_2"/></defs><path class="cls-1" d="M19.23,6.9h35.7L82.74,47.42l28-40.52h36.14V109.54H111V59.7L82.74,100,55.1,59.7v49.84H19.23Z" transform="translate(-19.23 -6.46)"/><polygon class="cls-1" points="35.87 0.55 35.87 103.05 17.68 96.23 17.68 8.81 35.87 0.55"/><path class="cls-2" d="M82.62,78.51" transform="translate(-19.23 -6.46)"/><path class="cls-3" d="M37.68,14.29" transform="translate(-19.23 -6.46)"/><path class="cls-4" d="M82.84,78.51" transform="translate(-19.23 -6.46)"/><polygon class="cls-5" points="63.42 40.79 63.42 67.34 18.45 7.83 35.96 0.48 63.42 40.79"/><polygon class="cls-1" points="18.45 7.83 35.96 53.64 63.67 93.32 63.42 66.73 29.57 22.4 18.45 7.83"/><polygon class="cls-6" points="0.06 0.48 18.45 7.83 35.87 0.55 0.06 0.48"/><polygon class="cls-6" points="0.06 103.07 18.45 95.72 35.87 103 0.06 103.07"/><path class="cls-7" d="M37.68,14.29,55.19,60.1l-.09,49.41-17.35-7.42S37.56,14.29,37.68,14.29Z" transform="translate(-19.23 -6.46)"/><polygon class="cls-1" points="91.48 0.55 91.48 103.05 109.66 96.23 109.66 8.81 91.48 0.55"/><path class="cls-8" d="M83.19,78.51" transform="translate(-19.23 -6.46)"/><path class="cls-3" d="M128.13,14.29" transform="translate(-19.23 -6.46)"/><path class="cls-9" d="M83,78.51" transform="translate(-19.23 -6.46)"/><polygon class="cls-7" points="108.9 7.83 91.39 53.64 63.47 93.32 63.47 66.73 97.78 22.4 108.9 7.83"/><polygon class="cls-6" points="127.89 0.48 108.9 7.83 91.48 0.55 127.89 0.48"/><polygon class="cls-6" points="127.89 103.07 108.9 95.72 91.48 103 127.89 103.07"/><path class="cls-1" d="M128.13,14.29,110.62,60.1l.09,49.41,17.35-7.42S128.26,14.29,128.13,14.29Z" transform="translate(-19.23 -6.46)"/><path class="cls-5" d="M147,6.94l-18.85,7.35-.07,87.8,18.92,7.4S146.75,7.17,147,6.94Z" transform="translate(-19.23 -6.46)"/><path class="cls-1" d="M342.75,109,324.17,81.68,306.06,109h-41.3L303.6,57.39,264.9,6.63l41-.13,18.74,25.88L342.9,6.63l41-.16L344.59,56.08l39.61,53Z" transform="translate(-19.23 -6.46)"/><path class="cls-1" d="M153,109.35,181.33,7H232l28.49,102.33H223.6l-2.33-11h-29l-2.48,11Zm44.29-32.79h18.88l-9.44-41.95Z" transform="translate(-19.23 -6.46)"/><polygon class="cls-6" points="134.01 102.68 152.91 95.13 170.81 102.61 134.01 102.68"/><polygon class="cls-6" points="204.39 102.68 223.29 95.13 241.18 102.61 204.39 102.68"/><polygon class="cls-5" points="175.05 7.85 187.78 27.73 170.81 102.61 152.91 95.13 175.05 7.85"/><polygon class="cls-5" points="241.18 102.61 213.03 0.48 200.74 7.85 223.29 95.13 241.18 102.61"/><polygon class="cls-10" points="200.74 7.85 213.03 0.48 162.09 0.48 175.05 7.85 200.74 7.85"/><polygon class="cls-11" points="175.05 7.85 187.78 27.73 200.74 7.85 175.05 7.85"/><polygon class="cls-1" points="178.18 69.72 156.29 80.89 219.5 80.89 196.72 69.72 178.18 69.72"/><polygon class="cls-12" points="173.26 92.06 156.29 80.89 219.5 80.89 201.86 92.06 173.26 92.06"/><polygon class="cls-1" points="200.74 7.85 187.78 27.73 196.72 69.72 219.5 80.89 200.74 7.85"/><polygon class="cls-6" points="245.36 102.37 272.42 93.86 286.78 102.29 245.36 102.37"/><polygon class="cls-6" points="364.63 102.37 338.4 93.86 323.22 102.29 364.63 102.37"/><polygon class="cls-6" points="245.36 0 273.66 8.5 286.78 0.08 245.36 0"/><polygon class="cls-6" points="364.63 0 336.34 8.5 323.64 0.16 364.63 0"/><polygon class="cls-1" points="305.37 50.67 273.66 8.5 245.36 0 284.61 51.2 305.37 50.67"/><polygon class="cls-13" points="305.37 50.67 272.42 93.86 245.36 102.37 284.61 51.2 305.37 50.67"/><polygon class="cls-5" points="286.78 0.08 273.66 8.5 305.22 49.84 305.45 25.92 286.78 0.08"/><polygon class="cls-5" points="305.37 50.67 304.94 75.22 286.78 102.29 272.42 93.86 305.37 50.67"/><polygon class="cls-14" points="364.63 0 336.34 8.5 305.22 49.84 325.36 49.62 364.63 0"/><polygon class="cls-15" points="325.36 49.62 305.22 49.84 338.4 93.86 364.63 102.37 325.36 49.62"/><path class="cls-16" d="M31.39,136.76v-8.85l-4.55,7.47h-.38l-4.55-7.44v8.82h-.77V126.42h.66l4.86,8,4.85-8h.65l0,10.34Z" transform="translate(-19.23 -6.46)"/><path class="cls-16" d="M42.67,133.85h-6.3L35,136.76h-.85l5-10.34h.79l5,10.34h-.86Zm-.3-.64-2.85-6-2.84,6Z" transform="translate(-19.23 -6.46)"/><path class="cls-16" d="M53.22,136.76,49.48,132l-3.73,4.79h-.93L49,131.42l-3.88-5h.93l3.46,4.44L53,126.42h.88l-3.88,5,4.18,5.35Z" transform="translate(-19.23 -6.46)"/><path class="cls-16" d="M62.43,127.1H58.52v-.68h8.61v.68H63.22v9.66h-.79Z" transform="translate(-19.23 -6.46)"/><path class="cls-16" d="M76.57,136.08v.68H69.08V126.42h7.26v.68H69.87v4.07h5.79v.67H69.87v4.24Z" transform="translate(-19.23 -6.46)"/><path class="cls-16" d="M81.11,136.15a5.16,5.16,0,0,1-2-1.88,5.3,5.3,0,0,1,0-5.37,5.23,5.23,0,0,1,2-1.88,6.48,6.48,0,0,1,5-.31,4.44,4.44,0,0,1,1.69,1.07l-.5.48A4.7,4.7,0,0,0,84,127a5.13,5.13,0,0,0-2.48.59,4.47,4.47,0,0,0-1.76,1.63,4.44,4.44,0,0,0,1.76,6.28,5.13,5.13,0,0,0,2.48.59,4.66,4.66,0,0,0,3.33-1.24l.5.49a4.67,4.67,0,0,1-1.7,1.08,6.13,6.13,0,0,1-2.16.37A6.06,6.06,0,0,1,81.11,136.15Z" transform="translate(-19.23 -6.46)"/><path class="cls-16" d="M99.34,126.42v10.34h-.79v-4.92H91.29v4.92H90.5V126.42h.79v4.75h7.26v-4.75Z" transform="translate(-19.23 -6.46)"/><path class="cls-16" d="M112,126.42v10.34h-.65l-7.4-9v9h-.79V126.42h.66l7.39,9v-9Z" transform="translate(-19.23 -6.46)"/><path class="cls-16" d="M115.75,126.42h.79v10.34h-.79Z" transform="translate(-19.23 -6.46)"/><path class="cls-16" d="M122,136.15a5.13,5.13,0,0,1-2-1.88,5.24,5.24,0,0,1,0-5.37,5.2,5.2,0,0,1,2-1.88,6.48,6.48,0,0,1,5-.31,4.44,4.44,0,0,1,1.69,1.07l-.5.48A4.68,4.68,0,0,0,125,127a5.13,5.13,0,0,0-2.48.59,4.47,4.47,0,0,0-1.76,1.63,4.44,4.44,0,0,0,1.76,6.28,5.13,5.13,0,0,0,2.48.59,4.64,4.64,0,0,0,3.33-1.24l.5.49a4.67,4.67,0,0,1-1.7,1.08,6.46,6.46,0,0,1-5-.31Z" transform="translate(-19.23 -6.46)"/><path class="cls-16" d="M137.85,133.85h-6.29l-1.38,2.91h-.86l5-10.34h.79l5,10.34h-.85Zm-.29-.64-2.85-6-2.84,6Z" transform="translate(-19.23 -6.46)"/><path class="cls-16" d="M142.07,126.42h.79v9.66h6.25v.68h-7Z" transform="translate(-19.23 -6.46)"/><path class="cls-16" d="M157.21,127.1H153.3v-.68h8.61v.68H158v9.66h-.79Z" transform="translate(-19.23 -6.46)"/><path class="cls-16" d="M171.4,136.76l-2.59-3.46a8,8,0,0,1-1.05.07h-3.1v3.39h-.8V126.42h3.9a5,5,0,0,1,3.21.92,3.11,3.11,0,0,1,1.16,2.56,3.2,3.2,0,0,1-.66,2.06,3.53,3.53,0,0,1-1.88,1.18l2.71,3.62Zm-3.64-4a4.2,4.2,0,0,0,2.65-.73,2.82,2.82,0,0,0,0-4.15,4.14,4.14,0,0,0-2.65-.73h-3.1v5.61Z" transform="translate(-19.23 -6.46)"/><path class="cls-16" d="M181.75,133.85h-6.3l-1.38,2.91h-.85l5-10.34H179l5,10.34h-.86Zm-.3-.64-2.85-6-2.84,6Z" transform="translate(-19.23 -6.46)"/><path class="cls-16" d="M186,126.42h.79v10.34H186Z" transform="translate(-19.23 -6.46)"/><path class="cls-16" d="M199.38,126.42v10.34h-.65l-7.4-9v9h-.79V126.42h.67l7.38,9v-9Z" transform="translate(-19.23 -6.46)"/><path class="cls-16" d="M203.17,126.42H204v10.34h-.79Z" transform="translate(-19.23 -6.46)"/><path class="cls-16" d="M216.58,126.42v10.34h-.65l-7.4-9v9h-.79V126.42h.67l7.38,9v-9Z" transform="translate(-19.23 -6.46)"/><path class="cls-16" d="M228.12,131.63h.76v3.87a4.81,4.81,0,0,1-1.73,1,6.57,6.57,0,0,1-2.14.34,6.18,6.18,0,0,1-2.91-.68,5.05,5.05,0,0,1-2-1.88,5.24,5.24,0,0,1,0-5.37,5.12,5.12,0,0,1,2-1.88,6.66,6.66,0,0,1,5.12-.31,4.82,4.82,0,0,1,1.71,1.05l-.5.5a4.25,4.25,0,0,0-1.52-.94A5.87,5.87,0,0,0,225,127a5.26,5.26,0,0,0-2.52.59,4.4,4.4,0,0,0-1.76,1.63,4.52,4.52,0,0,0,0,4.64,4.63,4.63,0,0,0,1.76,1.64,5.26,5.26,0,0,0,2.52.59,4.87,4.87,0,0,0,3.08-.94Z" transform="translate(-19.23 -6.46)"/><path class="cls-16" d="M266.54,136.76v-8.85L262,135.38h-.39l-4.54-7.44v8.82h-.78V126.42h.67l4.86,8,4.85-8h.65l0,10.34Z" transform="translate(-19.23 -6.46)"/><path class="cls-16" d="M277.82,133.85h-6.3l-1.38,2.91h-.85l5-10.34h.79l5,10.34h-.86Zm-.3-.64-2.85-6-2.84,6Z" transform="translate(-19.23 -6.46)"/><path class="cls-16" d="M288.36,136.76,284.63,132l-3.73,4.79H280l4.18-5.34-3.88-5h.93l3.46,4.44,3.46-4.44H289l-3.88,5,4.18,5.35Z" transform="translate(-19.23 -6.46)"/><path class="cls-16" d="M296.08,136.44a4.4,4.4,0,0,1-1.68-1l.35-.57a4.2,4.2,0,0,0,1.55.94,5.76,5.76,0,0,0,2,.36,4,4,0,0,0,2.34-.56,1.7,1.7,0,0,0,.79-1.46,1.5,1.5,0,0,0-.42-1.11,2.84,2.84,0,0,0-1-.63,14.64,14.64,0,0,0-1.67-.46,16.72,16.72,0,0,1-1.92-.55,2.93,2.93,0,0,1-1.22-.82,2.08,2.08,0,0,1-.51-1.48,2.44,2.44,0,0,1,.42-1.38,2.86,2.86,0,0,1,1.28-1,5.57,5.57,0,0,1,2.15-.37,6.64,6.64,0,0,1,1.77.25,5.46,5.46,0,0,1,1.5.68l-.29.61a5.21,5.21,0,0,0-1.44-.65,5.51,5.51,0,0,0-1.54-.22,3.84,3.84,0,0,0-2.28.57,1.79,1.79,0,0,0-.78,1.5,1.46,1.46,0,0,0,.42,1.1,2.81,2.81,0,0,0,1,.64,16.53,16.53,0,0,0,1.69.47,16.47,16.47,0,0,1,1.91.55,3.05,3.05,0,0,1,1.22.8,2.09,2.09,0,0,1,.5,1.46,2.38,2.38,0,0,1-.42,1.37,3,3,0,0,1-1.32,1,5.56,5.56,0,0,1-2.17.37A6.65,6.65,0,0,1,296.08,136.44Z" transform="translate(-19.23 -6.46)"/><path class="cls-16" d="M306.67,136.14a5.19,5.19,0,0,1-2-1.88,5.27,5.27,0,0,1,0-5.35,5.19,5.19,0,0,1,2-1.88,6,6,0,0,1,2.88-.69,6.13,6.13,0,0,1,2.89.68,5.16,5.16,0,0,1,2,1.88,5.24,5.24,0,0,1,0,5.37,5.09,5.09,0,0,1-2,1.88,6.13,6.13,0,0,1-2.89.68A6,6,0,0,1,306.67,136.14Zm5.35-.6a4.47,4.47,0,0,0,1.74-1.63,4.61,4.61,0,0,0,0-4.65,4.55,4.55,0,0,0-1.74-1.63,5.47,5.47,0,0,0-4.94,0,4.51,4.51,0,0,0-1.75,1.63,4.45,4.45,0,0,0,1.75,6.28,5.47,5.47,0,0,0,4.94,0Z" transform="translate(-19.23 -6.46)"/><path class="cls-16" d="M317.94,126.42h.79v9.66H325v.68h-7Z" transform="translate(-19.23 -6.46)"/><path class="cls-16" d="M327.85,135.69a4.49,4.49,0,0,1-1.14-3.32v-6h.79v5.92a4,4,0,0,0,.91,2.85,3.54,3.54,0,0,0,2.66.94,3.5,3.5,0,0,0,2.63-.94,4,4,0,0,0,.92-2.85v-5.92h.79v6a4.45,4.45,0,0,1-1.15,3.32,4.37,4.37,0,0,1-3.21,1.14A4.32,4.32,0,0,1,327.85,135.69Z" transform="translate(-19.23 -6.46)"/><path class="cls-16" d="M341,127.1h-3.91v-.68h8.61v.68h-3.91v9.66H341Z" transform="translate(-19.23 -6.46)"/><path class="cls-16" d="M347.61,126.42h.8v10.34h-.8Z" transform="translate(-19.23 -6.46)"/><path class="cls-16" d="M353.91,136.14a5.16,5.16,0,0,1-2-1.88,5.2,5.2,0,0,1,0-5.35,5.16,5.16,0,0,1,2-1.88,6,6,0,0,1,2.89-.69,6.12,6.12,0,0,1,2.88.68,5.26,5.26,0,0,1,2,1.88,5.3,5.3,0,0,1,0,5.37,5.18,5.18,0,0,1-2,1.88,6.12,6.12,0,0,1-2.88.68A6,6,0,0,1,353.91,136.14Zm5.35-.6a4.34,4.34,0,0,0,1.74-1.63,4.46,4.46,0,0,0-1.74-6.28,5,5,0,0,0-2.46-.59,5.13,5.13,0,0,0-2.48.59,4.41,4.41,0,0,0-1.74,1.63,4.46,4.46,0,0,0,1.74,6.28,5.13,5.13,0,0,0,2.48.59A5,5,0,0,0,359.26,135.54Z" transform="translate(-19.23 -6.46)"/><path class="cls-16" d="M374,126.42v10.34h-.65l-7.4-9v9h-.79V126.42h.67l7.38,9v-9Z" transform="translate(-19.23 -6.46)"/><path class="cls-16" d="M378.39,136.44a4.47,4.47,0,0,1-1.68-1l.36-.57a4.15,4.15,0,0,0,1.54.94,5.84,5.84,0,0,0,2,.36,4,4,0,0,0,2.34-.56,1.7,1.7,0,0,0,.79-1.46,1.53,1.53,0,0,0-.41-1.11,2.93,2.93,0,0,0-1-.63,15.52,15.52,0,0,0-1.68-.46,16.47,16.47,0,0,1-1.91-.55,3,3,0,0,1-1.23-.82,2.12,2.12,0,0,1-.5-1.48,2.44,2.44,0,0,1,.42-1.38,2.76,2.76,0,0,1,1.28-1,5.51,5.51,0,0,1,2.14-.37,6.64,6.64,0,0,1,1.77.25,5.67,5.67,0,0,1,1.51.68l-.3.61a5,5,0,0,0-1.43-.65,5.63,5.63,0,0,0-1.55-.22,3.84,3.84,0,0,0-2.28.57,1.8,1.8,0,0,0-.77,1.5,1.46,1.46,0,0,0,.42,1.1,2.73,2.73,0,0,0,1,.64,15.82,15.82,0,0,0,1.69.47,16.22,16.22,0,0,1,1.9.55,3,3,0,0,1,1.22.8,2,2,0,0,1,.51,1.46,2.39,2.39,0,0,1-.43,1.37,3,3,0,0,1-1.31,1,5.59,5.59,0,0,1-2.17.37A6.66,6.66,0,0,1,378.39,136.44Z" transform="translate(-19.23 -6.46)"/><polygon class="cls-5" points="223.75 114.27 223.79 123.04 221.18 118.67 223.75 114.27"/><polygon class="cls-1" points="223.76 123.04 223.71 114.27 226.32 118.65 223.76 123.04"/><polygon class="cls-17" points="223.71 114.35 223.71 118.58 221.18 118.67 223.71 114.35"/><polygon class="cls-17" points="223.73 123.06 223.73 118.55 226.33 118.64 223.73 123.06"/><path class="cls-18" d="M240.43,125.12,243,125l0,4.23A5.23,5.23,0,0,0,240.43,125.12Z" transform="translate(-19.23 -6.46)"/><path class="cls-18" d="M245.56,125.07H243l0-4.23C243,123.47,245.56,125.07,245.56,125.07Z" transform="translate(-19.23 -6.46)"/><polygon class="cls-5" points="223.72 128.75 223.77 137.52 221.16 133.14 223.72 128.75"/><polygon class="cls-1" points="223.73 137.52 223.68 128.75 226.29 133.13 223.73 137.52"/><polygon class="cls-17" points="223.68 128.83 223.68 133.06 221.16 133.14 223.68 128.83"/><polygon class="cls-17" points="223.7 137.54 223.7 133.03 226.31 133.12 223.7 137.54"/><path class="cls-18" d="M240.4,139.59l2.54-.1,0,4.23A5.26,5.26,0,0,0,240.4,139.59Z" transform="translate(-19.23 -6.46)"/><path class="cls-18" d="M245.54,139.55h-2.62l0-4.23C242.93,137.94,245.54,139.55,245.54,139.55Z" transform="translate(-19.23 -6.46)"/><polygon class="cls-5" points="219.4 121.61 219.45 130.37 216.84 126 219.4 121.61"/><polygon class="cls-1" points="219.41 130.37 219.36 121.61 221.97 125.98 219.41 130.37"/><polygon class="cls-17" points="219.36 121.68 219.36 125.91 216.84 126 219.36 121.68"/><polygon class="cls-17" points="219.38 130.39 219.38 125.88 221.99 125.97 219.38 130.39"/><path class="cls-18" d="M236.08,132.45l2.53-.11,0,4.23A5.23,5.23,0,0,0,236.08,132.45Z" transform="translate(-19.23 -6.46)"/><path class="cls-18" d="M241.22,132.4H238.6l0-4.23C238.61,130.8,241.22,132.4,241.22,132.4Z" transform="translate(-19.23 -6.46)"/><polygon class="cls-5" points="227.82 121.61 227.87 130.37 225.25 126 227.82 121.61"/><polygon class="cls-1" points="227.83 130.37 227.78 121.61 230.39 125.98 227.83 130.37"/><polygon class="cls-17" points="227.78 121.68 227.78 125.91 225.25 126 227.78 121.68"/><polygon class="cls-17" points="227.8 130.39 227.8 125.88 230.4 125.97 227.8 130.39"/><path class="cls-18" d="M244.5,132.45l2.53-.11,0,4.23A5.23,5.23,0,0,0,244.5,132.45Z" transform="translate(-19.23 -6.46)"/><path class="cls-18" d="M249.63,132.4H247l0-4.23C247,130.8,249.63,132.4,249.63,132.4Z" transform="translate(-19.23 -6.46)"/></svg>