<svg id="Layer_1" data-name="Layer 1" xmlns="http://www.w3.org/2000/svg" viewBox="0 0 650.21 484.14"><defs><style>.cls-1{fill:#c7a315;stroke-width:5px;}.cls-1,.cls-3{stroke:#fff;stroke-miterlimit:10;}.cls-2{fill:#fff;}.cls-3{fill:none;stroke-width:4px;}</style></defs><polygon class="cls-1" points="325.11 4.48 4.69 481.64 645.52 481.64 325.11 4.48"/><path class="cls-2" d="M6922.3,7251.21q1.53-14.55,3.06-29.17,2.1-32.39,4.21-65,1-23.66,2-47.4.16-6.47.16-13,0-4.83-.17-14.47c14.36-2.43,26.06-4.27,35.06-5.69,7.21-1.14,17.23-2.8,30.09-4.85s23.08-3.44,30.65-4.34c15.6-1.85,27.09-2.1,34.46-1a52.34,52.34,0,0,1,20.58,7.72,39,39,0,0,1,13.47,14.7,47.38,47.38,0,0,1,5.15,21.82,55.25,55.25,0,0,1-10.89,33.12q-10.94,15.12-30.26,23.06c-12.89,5.32-27.2,8.3-42.91,9.14a188.21,188.21,0,0,1-24.59-.45,218.26,218.26,0,0,0-8.53-24.83,136.15,136.15,0,0,0,20.79,0,83.52,83.52,0,0,0,24.35-5.08,36.87,36.87,0,0,0,16.39-12.13,28.81,28.81,0,0,0,6-17.76,20.75,20.75,0,0,0-2.56-10.27,16.93,16.93,0,0,0-7.39-7,28.51,28.51,0,0,0-10.67-2.84,98.24,98.24,0,0,0-16.66.73q-9.47,1-19.09,2.43t-17.05,2.37q-2,25.62-2.93,48.8-1,24.74-1.93,49.4-1,26.2-.94,38.41,0,4.64.2,13.39l-24.62-.18Q6943,7250.9,6922.3,7251.21Z" transform="translate(-6892.25 -6869.81)"/><path class="cls-2" d="M7134.62,7250.77q5-41.91,7.53-96.54t2.43-95.95c13.62-.4,25-.63,34.23-.84q14.82-.31,29-.78t30.08-.24a255.8,255.8,0,0,1,35.34,2.79,76,76,0,0,1,27.65,9.71c8,4.82,14,10.49,17.91,16.95a41.67,41.67,0,0,1,5.82,22.08,48.24,48.24,0,0,1-2.24,14.72,46.24,46.24,0,0,1-6.57,13,48.84,48.84,0,0,1-10.31,10.54,60,60,0,0,1-11.82,7.09,80.5,80.5,0,0,1-13.36,4.4q-7.48,1.82-20.06,4.45,5.76,9.44,11.53,18.84c3.74,6,10.8,16.73,21.19,32.13q8.56,12.54,17.11,25c.9,1.31,3.6,5.57,8.12,12.74q-20.78-.3-27.4-.31-8.18,0-28.76.26-9.39-18.83-18.78-37.75-4.92-8.67-11.87-20.48-10.24-17.3-20.52-34.56-3.06-4.83-8.5-14.48a149.84,149.84,0,0,0,20.77,1.71,87.72,87.72,0,0,0,26.73-3.75q12.09-3.81,18.57-11.92a28,28,0,0,0,6.49-17.85,22.76,22.76,0,0,0-2.79-11.1q-2.8-5.17-9.44-8.89a43.46,43.46,0,0,0-15.83-4.89,160,160,0,0,0-18.39-1.24c-3.41,0-8.07,0-14,.08s-13.18.16-21.8.26q-1.52,29.19-3,58.38-1.58,53.25-3.14,106.47l-26.33-.27Q7154,7250.47,7134.62,7250.77Z" transform="translate(-6892.25 -6869.81)"/><path class="cls-2" d="M7356.64,7246.87q-1.32-20.88-3.48-34.13c22.15,8.6,42.28,12.89,60.38,13.24a77.59,77.59,0,0,0,20.27-2.13q9.42-2.34,13.93-6.78a13.91,13.91,0,0,0,4.51-10.11,15.15,15.15,0,0,0-2.15-8q-3.23-4.93-10.78-10.53c-6.44-5.12-17.95-13.64-34.52-25.87-7.89-5.91-13.34-10.16-16.35-12.69a115.74,115.74,0,0,1-15.57-14.89,45.49,45.49,0,0,1-7.78-12.87,37.12,37.12,0,0,1-2.34-13.31,35.28,35.28,0,0,1,9-23.39c6-7,14.86-11.93,26.69-14.72s26.7-2.9,44.62-.21q24.18,3.61,54.31,13.44c.56,8.67,1.68,18.66,3.37,29.91-17.5-7.59-33.66-12.51-48.51-14.47q-16.53-2.21-27.12,2.48c-7.05,3.12-10.58,7.36-10.6,12.58a15.36,15.36,0,0,0,.73,4.52,19.51,19.51,0,0,0,2.2,4.72,41.39,41.39,0,0,0,5.23,6.17,91.36,91.36,0,0,0,11,9.14q7.26,5.31,12.41,8.6,10.42,8.17,20.86,16.18,7.92,5.63,14.17,10.76a140.22,140.22,0,0,1,10.72,9.67,53.51,53.51,0,0,1,7,8.53,34,34,0,0,1,3.8,8.05,28.45,28.45,0,0,1,1.27,8.48,31.87,31.87,0,0,1-6.61,19.25q-6.62,9-19,14.93a99,99,0,0,1-27.15,8.31,198.28,198.28,0,0,1-31.23,2.39,250.59,250.59,0,0,1-25.29-1.48Q7380.22,7251.17,7356.64,7246.87Z" transform="translate(-6892.25 -6869.81)"/><path d="M6922.3,7251.21q1.53-14.55,3.06-29.17,2.1-32.39,4.21-65,1-23.66,2-47.4.16-6.47.16-13,0-4.83-.17-14.47c14.36-2.43,26.06-4.27,35.06-5.69,7.21-1.14,17.23-2.8,30.09-4.85s23.08-3.44,30.65-4.34c15.6-1.85,27.09-2.1,34.46-1a52.34,52.34,0,0,1,20.58,7.72,39,39,0,0,1,13.47,14.7,47.38,47.38,0,0,1,5.15,21.82,55.25,55.25,0,0,1-10.89,33.12q-10.94,15.12-30.26,23.06c-12.89,5.32-27.2,8.3-42.91,9.14a188.21,188.21,0,0,1-24.59-.45,218.26,218.26,0,0,0-8.53-24.83,136.15,136.15,0,0,0,20.79,0,83.52,83.52,0,0,0,24.35-5.08,36.87,36.87,0,0,0,16.39-12.13,28.81,28.81,0,0,0,6-17.76,20.75,20.75,0,0,0-2.56-10.27,16.93,16.93,0,0,0-7.39-7,28.51,28.51,0,0,0-10.67-2.84,98.24,98.24,0,0,0-16.66.73q-9.47,1-19.09,2.43t-17.05,2.37q-2,25.62-2.93,48.8-1,24.74-1.93,49.4-1,26.2-.94,38.41,0,4.64.2,13.39l-24.62-.18Q6943,7250.9,6922.3,7251.21Z" transform="translate(-6892.25 -6869.81)"/><path d="M7134.62,7250.77q5-41.91,7.53-96.54t2.43-95.95c13.62-.4,25-.63,34.23-.84q14.82-.31,29-.78t30.08-.24a255.8,255.8,0,0,1,35.34,2.79,76,76,0,0,1,27.65,9.71c8,4.82,14,10.49,17.91,16.95a41.67,41.67,0,0,1,5.82,22.08,48.24,48.24,0,0,1-2.24,14.72,46.24,46.24,0,0,1-6.57,13,48.84,48.84,0,0,1-10.31,10.54,60,60,0,0,1-11.82,7.09,80.5,80.5,0,0,1-13.36,4.4q-7.48,1.82-20.06,4.45,5.76,9.44,11.53,18.84c3.74,6,10.8,16.73,21.19,32.13q8.56,12.54,17.11,25c.9,1.31,3.6,5.57,8.12,12.74q-20.78-.3-27.4-.31-8.18,0-28.76.26-9.39-18.83-18.78-37.75-4.92-8.67-11.87-20.48-10.24-17.3-20.52-34.56-3.06-4.83-8.5-14.48a149.84,149.84,0,0,0,20.77,1.71,87.72,87.72,0,0,0,26.73-3.75q12.09-3.81,18.57-11.92a28,28,0,0,0,6.49-17.85,22.76,22.76,0,0,0-2.79-11.1q-2.8-5.17-9.44-8.89a43.46,43.46,0,0,0-15.83-4.89,160,160,0,0,0-18.39-1.24c-3.41,0-8.07,0-14,.08s-13.18.16-21.8.26q-1.52,29.19-3,58.38-1.58,53.25-3.14,106.47l-26.33-.27Q7154,7250.47,7134.62,7250.77Z" transform="translate(-6892.25 -6869.81)"/><path d="M7356.64,7246.87q-1.32-20.88-3.48-34.13c22.15,8.6,42.28,12.89,60.38,13.24a77.59,77.59,0,0,0,20.27-2.13q9.42-2.34,13.93-6.78a13.91,13.91,0,0,0,4.51-10.11,15.15,15.15,0,0,0-2.15-8q-3.23-4.93-10.78-10.53c-6.44-5.12-17.95-13.64-34.52-25.87-7.89-5.91-13.34-10.16-16.35-12.69a115.74,115.74,0,0,1-15.57-14.89,45.49,45.49,0,0,1-7.78-12.87,37.12,37.12,0,0,1-2.34-13.31,35.28,35.28,0,0,1,9-23.39c6-7,14.86-11.93,26.69-14.72s26.7-2.9,44.62-.21q24.18,3.61,54.31,13.44c.56,8.67,1.68,18.66,3.37,29.91-17.5-7.59-33.66-12.51-48.51-14.47q-16.53-2.21-27.12,2.48c-7.05,3.12-10.58,7.36-10.6,12.58a15.36,15.36,0,0,0,.73,4.52,19.51,19.51,0,0,0,2.2,4.72,41.39,41.39,0,0,0,5.23,6.17,91.36,91.36,0,0,0,11,9.14q7.26,5.31,12.41,8.6,10.42,8.17,20.86,16.18,7.92,5.63,14.17,10.76a140.22,140.22,0,0,1,10.72,9.67,53.51,53.51,0,0,1,7,8.53,34,34,0,0,1,3.8,8.05,28.45,28.45,0,0,1,1.27,8.48,31.87,31.87,0,0,1-6.61,19.25q-6.62,9-19,14.93a99,99,0,0,1-27.15,8.31,198.28,198.28,0,0,1-31.23,2.39,250.59,250.59,0,0,1-25.29-1.48Q7380.22,7251.17,7356.64,7246.87Z" transform="translate(-6892.25 -6869.81)"/><path class="cls-3" d="M6922.3,7251.21q1.53-14.55,3.06-29.17,2.1-32.39,4.21-65,1-23.66,2-47.4.16-6.47.16-13,0-4.83-.17-14.47c14.36-2.43,26.06-4.27,35.06-5.69,7.21-1.14,17.23-2.8,30.09-4.85s23.08-3.44,30.65-4.34c15.6-1.85,27.09-2.1,34.46-1a52.34,52.34,0,0,1,20.58,7.72,39,39,0,0,1,13.47,14.7,47.38,47.38,0,0,1,5.15,21.82,55.25,55.25,0,0,1-10.89,33.12q-10.94,15.12-30.26,23.06c-12.89,5.32-27.2,8.3-42.91,9.14a188.21,188.21,0,0,1-24.59-.45,218.26,218.26,0,0,0-8.53-24.83,136.15,136.15,0,0,0,20.79,0,83.52,83.52,0,0,0,24.35-5.08,36.87,36.87,0,0,0,16.39-12.13,28.81,28.81,0,0,0,6-17.76,20.75,20.75,0,0,0-2.56-10.27,16.93,16.93,0,0,0-7.39-7,28.51,28.51,0,0,0-10.67-2.84,98.24,98.24,0,0,0-16.66.73q-9.47,1-19.09,2.43t-17.05,2.37q-2,25.62-2.93,48.8-1,24.74-1.93,49.4-1,26.2-.94,38.41,0,4.64.2,13.39l-24.62-.18Q6943,7250.9,6922.3,7251.21Z" transform="translate(-6892.25 -6869.81)"/><path class="cls-3" d="M7134.62,7250.77q5-41.91,7.53-96.54t2.43-95.95c13.62-.4,25-.63,34.23-.84q14.82-.31,29-.78t30.08-.24a255.8,255.8,0,0,1,35.34,2.79,76,76,0,0,1,27.65,9.71c8,4.82,14,10.49,17.91,16.95a41.67,41.67,0,0,1,5.82,22.08,48.24,48.24,0,0,1-2.24,14.72,46.24,46.24,0,0,1-6.57,13,48.84,48.84,0,0,1-10.31,10.54,60,60,0,0,1-11.82,7.09,80.5,80.5,0,0,1-13.36,4.4q-7.48,1.82-20.06,4.45,5.76,9.44,11.53,18.84c3.74,6,10.8,16.73,21.19,32.13q8.56,12.54,17.11,25c.9,1.31,3.6,5.57,8.12,12.74q-20.78-.3-27.4-.31-8.18,0-28.76.26-9.39-18.83-18.78-37.75-4.92-8.67-11.87-20.48-10.24-17.3-20.52-34.56-3.06-4.83-8.5-14.48a149.84,149.84,0,0,0,20.77,1.71,87.72,87.72,0,0,0,26.73-3.75q12.09-3.81,18.57-11.92a28,28,0,0,0,6.49-17.85,22.76,22.76,0,0,0-2.79-11.1q-2.8-5.17-9.44-8.89a43.46,43.46,0,0,0-15.83-4.89,160,160,0,0,0-18.39-1.24c-3.41,0-8.07,0-14,.08s-13.18.16-21.8.26q-1.52,29.19-3,58.38-1.58,53.25-3.14,106.47l-26.33-.27Q7154,7250.47,7134.62,7250.77Z" transform="translate(-6892.25 -6869.81)"/><path class="cls-3" d="M7356.64,7246.87q-1.32-20.88-3.48-34.13c22.15,8.6,42.28,12.89,60.38,13.24a77.59,77.59,0,0,0,20.27-2.13q9.42-2.34,13.93-6.78a13.91,13.91,0,0,0,4.51-10.11,15.15,15.15,0,0,0-2.15-8q-3.23-4.93-10.78-10.53c-6.44-5.12-17.95-13.64-34.52-25.87-7.89-5.91-13.34-10.16-16.35-12.69a115.74,115.74,0,0,1-15.57-14.89,45.49,45.49,0,0,1-7.78-12.87,37.12,37.12,0,0,1-2.34-13.31,35.28,35.28,0,0,1,9-23.39c6-7,14.86-11.93,26.69-14.72s26.7-2.9,44.62-.21q24.18,3.61,54.31,13.44c.56,8.67,1.68,18.66,3.37,29.91-17.5-7.59-33.66-12.51-48.51-14.47q-16.53-2.21-27.12,2.48c-7.05,3.12-10.58,7.36-10.6,12.58a15.36,15.36,0,0,0,.73,4.52,19.51,19.51,0,0,0,2.2,4.72,41.39,41.39,0,0,0,5.23,6.17,91.36,91.36,0,0,0,11,9.14q7.26,5.31,12.41,8.6,10.42,8.17,20.86,16.18,7.92,5.63,14.17,10.76a140.22,140.22,0,0,1,10.72,9.67,53.51,53.51,0,0,1,7,8.53,34,34,0,0,1,3.8,8.05,28.45,28.45,0,0,1,1.27,8.48,31.87,31.87,0,0,1-6.61,19.25q-6.62,9-19,14.93a99,99,0,0,1-27.15,8.31,198.28,198.28,0,0,1-31.23,2.39,250.59,250.59,0,0,1-25.29-1.48Q7380.22,7251.17,7356.64,7246.87Z" transform="translate(-6892.25 -6869.81)"/></svg>